<svg id="Group_2411" data-name="Group 2411" xmlns="http://www.w3.org/2000/svg" width="20" height="20" viewBox="0 0 20 20">
  <path id="Path_385" data-name="Path 385" d="M7.5,14H5.833A.834.834,0,0,0,5,14.833v2.5a.834.834,0,0,0,.833.833H7.5a.834.834,0,0,0,.833-.833v-2.5A.834.834,0,0,0,7.5,14Z" transform="translate(-0.833 -2.333)" fill="#3dcb97"/>
  <path id="Path_386" data-name="Path 386" d="M12.5,10H10.833a.834.834,0,0,0-.833.833h0v5.833a.834.834,0,0,0,.833.833H12.5a.834.834,0,0,0,.833-.833V10.833A.834.834,0,0,0,12.5,10Z" transform="translate(-1.667 -1.667)" fill="#3dcb97"/>
  <path id="Path_387" data-name="Path 387" d="M17.5,5H15.833A.834.834,0,0,0,15,5.833h0v10a.834.834,0,0,0,.833.833H17.5a.834.834,0,0,0,.833-.833v-10A.834.834,0,0,0,17.5,5Z" transform="translate(-2.5 -0.833)" fill="#3dcb97"/>
  <rect id="Rectangle_461" data-name="Rectangle 461" width="20" height="20" fill="none"/>
</svg>
