<svg xmlns="http://www.w3.org/2000/svg" width="24" height="24" viewBox="0 0 24 24">
  <g id="Group_2916" data-name="Group 2916" transform="translate(24 24) rotate(180)">
    <path id="Path_340" data-name="Path 340" d="M5.1.194a.662.662,0,0,1,0,.935h0L1.6,4.63l3.5,3.5a.662.662,0,1,1-.937.936L.194,5.1a.662.662,0,0,1,0-.935h0L4.162.194a.661.661,0,0,1,.935,0Z" transform="translate(5.218 7.74)" fill="#fff" fill-rule="evenodd"/>
    <path id="Path_341" data-name="Path 341" d="M0,.661A.662.662,0,0,1,.662,0H14.549a.661.661,0,1,1,0,1.322H.662A.662.662,0,0,1,0,.661Z" transform="translate(5.88 11.709)" fill="#fff" fill-rule="evenodd"/>
    <rect id="Rectangle_588" data-name="Rectangle 588" width="24" height="24" fill="none"/>
  </g>
</svg>
