<svg id="Group_2392" data-name="Group 2392" xmlns="http://www.w3.org/2000/svg" width="20" height="20" viewBox="0 0 20 20">
  <g id="Group_2391" data-name="Group 2391" transform="translate(5 1.615)">
    <path id="Path_556" data-name="Path 556" d="M11.517,6.076h1.149V16.419a.575.575,0,1,1-1.149,0Z" transform="translate(-6.919 -2.628)" fill="#3dcb97"/>
    <path id="Path_557" data-name="Path 557" d="M9.435,17.15a.575.575,0,0,1-.44.682,4.72,4.72,0,0,0-1.478.543c-.347.221-.368.369-.368.389s.006.1.168.242a2.628,2.628,0,0,0,.8.44,9.068,9.068,0,0,0,3.049.468,9.073,9.073,0,0,0,3.05-.468,2.664,2.664,0,0,0,.8-.44c.162-.143.168-.227.168-.242s-.021-.168-.368-.389a4.672,4.672,0,0,0-1.478-.543.575.575,0,0,1,.233-1.126l.012,0a5.826,5.826,0,0,1,1.85.7,1.677,1.677,0,0,1,.9,1.358,1.479,1.479,0,0,1-.555,1.1,3.7,3.7,0,0,1-1.164.655,10.153,10.153,0,0,1-3.453.542,10.193,10.193,0,0,1-3.453-.542,3.74,3.74,0,0,1-1.164-.656A1.485,1.485,0,0,1,6,18.764a1.679,1.679,0,0,1,.9-1.358,5.789,5.789,0,0,1,1.852-.7.575.575,0,0,1,.683.44Z" transform="translate(-6 -4.397)" fill="#3dcb97" fill-rule="evenodd"/>
    <path id="Path_555" data-name="Path 555" d="M14.965,5.386a3.448,3.448,0,1,1-1.01-2.438A3.447,3.447,0,0,1,14.965,5.386Z" transform="translate(-6.345 -1.938)" fill="#3dcb97"/>
  </g>
  <rect id="Rectangle_453" data-name="Rectangle 453" width="20" height="20" fill="none"/>
</svg>
