<svg id="Group_2430" data-name="Group 2430" xmlns="http://www.w3.org/2000/svg" width="20" height="20" viewBox="0 0 20 20">
  <g id="圖層_1" data-name="圖層 1" transform="translate(1.67 3.183)">
    <path id="Icon_material-photo-size-select-small" data-name="Icon material-photo-size-select-small" d="M18.667,12.909H17.153v1.515h1.514Zm0-3.03H17.153v1.515h1.514Zm0,6.059H17.153v1.515A1.628,1.628,0,0,0,18.667,15.938ZM12.608,3.82H11.093V5.335h1.515Zm6.059,3.029H17.153V8.364h1.514ZM17.153,3.82V5.335h1.514A1.628,1.628,0,0,0,17.153,3.82ZM3.519,17.453H9.578V12.909H2v3.029A1.519,1.519,0,0,0,3.519,17.453Zm0-10.6H2V8.364H3.519Zm9.089,9.089H11.093v1.515h1.515ZM15.638,3.82H14.123V5.335h1.515Zm0,12.118H14.123v1.515h1.515ZM3.519,3.82A1.629,1.629,0,0,0,2,5.335H3.519Zm0,6.059H2v1.515H3.519ZM9.578,3.82H8.064V5.335H9.578Zm-3.029,0H5.034V5.335H6.549Z" transform="translate(-2.004 -3.82)" fill="#3dcb97"/>
  </g>
  <g id="圖層_2" data-name="圖層 2" transform="translate(0)">
    <rect id="Rectangle_478" data-name="Rectangle 478" width="20" height="20" fill="none"/>
  </g>
</svg>
