<svg xmlns="http://www.w3.org/2000/svg" width="20" height="20" viewBox="0 0 20 20">
  <g id="Group_2429" data-name="Group 2429" transform="translate(0 -48)">
    <g id="圖層_1" data-name="圖層 1" transform="translate(0 48)">
      <rect id="Rectangle_476" data-name="Rectangle 476" width="20" height="20" fill="none"/>
    </g>
    <g id="圖層_2" data-name="圖層 2" transform="translate(4.167 51.333)">
      <path id="Icon_awesome-user" data-name="Icon awesome-user" d="M10.833,58.667A3.333,3.333,0,1,0,7.5,55.333,3.333,3.333,0,0,0,10.833,58.667Zm2.333.833h-.435a4.531,4.531,0,0,1-3.8,0H8.5A3.5,3.5,0,0,0,5,63v1.083a1.25,1.25,0,0,0,1.25,1.25h9.167a1.25,1.25,0,0,0,1.25-1.25V63A3.5,3.5,0,0,0,13.167,59.5Z" transform="translate(-5 -52)" fill="#3dcb97"/>
    </g>
  </g>
</svg>
