<svg xmlns="http://www.w3.org/2000/svg" width="20" height="20" viewBox="0 0 20 20">
  <g id="Group_2424" data-name="Group 2424" transform="translate(528)">
    <path id="Icon_material-event" data-name="Icon material-event" d="M-514.233,10.792h-3.542v3.542h3.542ZM-514.942,3V4.417h-5.667V3h-1.417V4.417h-.708a1.41,1.41,0,0,0-1.41,1.411v.006l-.008,9.917a1.417,1.417,0,0,0,1.417,1.417h9.917A1.421,1.421,0,0,0-511.4,15.75V5.833a1.421,1.421,0,0,0-1.417-1.417h-.708V3Zm2.125,12.75h-9.917V7.958h9.917Z" transform="translate(-0.642 -0.5)" fill="#3dcb97"/>
    <rect id="Rectangle_469" data-name="Rectangle 469" width="20" height="20" transform="translate(-528)" fill="none"/>
  </g>
</svg>
