<svg id="Group_2428" data-name="Group 2428" xmlns="http://www.w3.org/2000/svg" width="20" height="20" viewBox="0 0 20 20">
  <g id="圖層_1" data-name="圖層 1" transform="translate(0)">
    <rect id="Rectangle_475" data-name="Rectangle 475" width="20" height="20" fill="none"/>
  </g>
  <g id="圖層_2" data-name="圖層 2" transform="translate(3.574 2.472)">
    <path id="Icon_material-content-copy" data-name="Icon material-content-copy" d="M13.759,2.966H5.641A1.357,1.357,0,0,0,4.289,4.319v9.47H5.641V4.319h8.117Zm2.029,2.706H8.347A1.357,1.357,0,0,0,6.995,7.024v9.47a1.356,1.356,0,0,0,1.353,1.352h7.441a1.357,1.357,0,0,0,1.353-1.352V7.024A1.357,1.357,0,0,0,15.788,5.672Zm0,10.823H8.347V7.024h7.441Z" transform="translate(-4.289 -2.966)" fill="#3dcb97"/>
  </g>
</svg>
