<svg id="Group_2393" data-name="Group 2393" xmlns="http://www.w3.org/2000/svg" width="20" height="20" viewBox="0 0 20 20">
  <path id="Icon_material-remove-red-eye" data-name="Icon material-remove-red-eye" d="M586.35-138.764a8.95,8.95,0,0,0-8.325,5.676,8.943,8.943,0,0,0,11.592,5.058,8.943,8.943,0,0,0,5.058-5.058A8.95,8.95,0,0,0,586.35-138.764Zm0,9.46a3.784,3.784,0,0,1-3.784-3.784,3.784,3.784,0,0,1,3.784-3.784,3.784,3.784,0,0,1,3.784,3.784A3.784,3.784,0,0,1,586.35-129.3Zm0-6.054a2.269,2.269,0,0,0-2.27,2.27,2.27,2.27,0,0,0,2.27,2.271,2.271,2.271,0,0,0,2.271-2.271,2.267,2.267,0,0,0-2.265-2.27Z" transform="translate(-576.338 143.087)" fill="#3dcb97"/>
  <rect id="Rectangle_454" data-name="Rectangle 454" width="20" height="20" transform="translate(0 0)" fill="none"/>
</svg>
