<svg xmlns="http://www.w3.org/2000/svg" width="57" height="57" viewBox="0 0 57 57">
  <g id="Group_4152" data-name="Group 4152" transform="translate(0 -0.304)">
    <path id="Icon_material-playlist-add-check" data-name="Icon material-playlist-add-check" d="M224.845,14.31l3.187,3.187L213.179,32.37l-9.584-9.561,3.187-3.189,6.4,6.376Z" transform="translate(-173.284 19.672)" fill="#3dcb97"/>
    <rect id="Rectangle_458" data-name="Rectangle 458" width="57" height="57" transform="translate(0 0.304)" fill="none"/>
    <path id="Path_2370" data-name="Path 2370" d="M212.788,27.26h18.788V9.326a3.425,3.425,0,0,0-3.417-3.417H197.417A3.425,3.425,0,0,0,194,9.326V33.237a3.425,3.425,0,0,0,3.417,3.417h15.371ZM197.417,9.326h15.371v3.415H197.417Zm0,6.832h15.371v3.415H197.417Z" transform="translate(-186.223 8.343)" fill="#3dcb97"/>
  </g>
</svg>
