<svg xmlns="http://www.w3.org/2000/svg" width="20" height="20" viewBox="0 0 20 20">
  <g id="Group_2412" data-name="Group 2412" transform="translate(96 -144)">
    <rect id="Rectangle_462" data-name="Rectangle 462" width="20" height="20" transform="translate(-96 144)" fill="none"/>
    <path id="Icon_metro-flow-tree" data-name="Icon metro-flow-tree" d="M-79.119,157.346v-1.853a2.792,2.792,0,0,0-2.793-2.792h-1.593a1.2,1.2,0,0,1-1.2-1.2v-1.853a1.914,1.914,0,0,0,.942-2.537,1.913,1.913,0,0,0-2.537-.941,1.913,1.913,0,0,0-.942,2.536,1.914,1.914,0,0,0,.942.942v1.853a1.2,1.2,0,0,1-1.2,1.2h-1.594a2.792,2.792,0,0,0-2.792,2.792h0v1.853a1.913,1.913,0,0,0-.942,2.537,1.913,1.913,0,0,0,2.537.941,1.912,1.912,0,0,0,.941-2.536,1.913,1.913,0,0,0-.941-.942v-1.854a1.2,1.2,0,0,1,1.2-1.2h1.6a2.756,2.756,0,0,0,1.2-.279v3.328a1.914,1.914,0,0,0-.942,2.537,1.914,1.914,0,0,0,2.537.942,1.914,1.914,0,0,0,.942-2.537,1.917,1.917,0,0,0-.942-.942v-3.328a2.756,2.756,0,0,0,1.2.279h1.6a1.2,1.2,0,0,1,1.2,1.2v1.853a1.913,1.913,0,0,0-.941,2.537,1.912,1.912,0,0,0,2.536.941,1.912,1.912,0,0,0,.942-2.536,1.911,1.911,0,0,0-.942-.942Zm-6.38-10.533a1.1,1.1,0,0,1,1.1,1.1,1.1,1.1,0,0,1-1.1,1.105,1.1,1.1,0,0,1-1.105-1.1,1.1,1.1,0,0,1,1.1-1.1Zm-5.581,13.373a1.1,1.1,0,0,1-1.105-1.1,1.1,1.1,0,0,1,1.1-1.1,1.1,1.1,0,0,1,1.1,1.1h0A1.1,1.1,0,0,1-91.08,160.186Zm5.583,0a1.1,1.1,0,0,1-1.1-1.1,1.1,1.1,0,0,1,1.1-1.1,1.1,1.1,0,0,1,1.105,1.1h0a1.1,1.1,0,0,1-1.1,1.1h0Zm5.584,0a1.1,1.1,0,0,1-1.105-1.1,1.1,1.1,0,0,1,1.1-1.1,1.105,1.105,0,0,1,1.1,1.1h0a1.1,1.1,0,0,1-1.1,1.1h0Z" transform="translate(-0.501 -0.333)" fill="#3dcb97"/>
  </g>
</svg>
